<mxfile host="app.diagrams.net" modified="2021-05-24T02:01:39.780Z" agent="5.0 (Macintosh; Intel Mac OS X 10_15_5) AppleWebKit/537.36 (KHTML, like Gecko) Chrome/90.0.4430.212 Safari/537.36" etag="DB9YQG25Zt-JEOCB0784" version="14.7.0" type="github">
  <diagram id="e6S9pTn7jaCDnWygfx2N" name="第 1 页">
    <mxGraphModel dx="946" dy="590" grid="1" gridSize="10" guides="1" tooltips="1" connect="1" arrows="1" fold="1" page="1" pageScale="1" pageWidth="827" pageHeight="1169" math="0" shadow="0">
      <root>
        <mxCell id="0" />
        <mxCell id="1" parent="0" />
        <mxCell id="X0XXBBq298W-yAg8tdMK-1" value="&lt;h1&gt;Spring createBean()&lt;/h1&gt;&lt;div&gt;创建bean的主要流程和扩展点&lt;/div&gt;" style="text;html=1;strokeColor=none;fillColor=none;spacing=5;spacingTop=-20;whiteSpace=wrap;overflow=hidden;rounded=0;" parent="1" vertex="1">
          <mxGeometry x="10" y="40" width="190" height="120" as="geometry" />
        </mxCell>
        <mxCell id="X0XXBBq298W-yAg8tdMK-6" style="edgeStyle=orthogonalEdgeStyle;rounded=0;orthogonalLoop=1;jettySize=auto;html=1;exitX=0.5;exitY=1;exitDx=0;exitDy=0;entryX=0.5;entryY=0;entryDx=0;entryDy=0;" parent="1" source="X0XXBBq298W-yAg8tdMK-2" target="X0XXBBq298W-yAg8tdMK-5" edge="1">
          <mxGeometry relative="1" as="geometry" />
        </mxCell>
        <mxCell id="X0XXBBq298W-yAg8tdMK-2" value="createBean()" style="rounded=1;whiteSpace=wrap;html=1;" parent="1" vertex="1">
          <mxGeometry x="380" y="60" width="120" height="60" as="geometry" />
        </mxCell>
        <mxCell id="X0XXBBq298W-yAg8tdMK-8" value="" style="edgeStyle=orthogonalEdgeStyle;rounded=0;orthogonalLoop=1;jettySize=auto;html=1;" parent="1" source="X0XXBBq298W-yAg8tdMK-5" target="X0XXBBq298W-yAg8tdMK-7" edge="1">
          <mxGeometry relative="1" as="geometry" />
        </mxCell>
        <mxCell id="X0XXBBq298W-yAg8tdMK-5" value="resloveClass()&lt;br&gt;加载类" style="rounded=0;whiteSpace=wrap;html=1;fillColor=#ffe6cc;strokeColor=#d79b00;" parent="1" vertex="1">
          <mxGeometry x="380" y="200" width="120" height="60" as="geometry" />
        </mxCell>
        <mxCell id="X0XXBBq298W-yAg8tdMK-12" value="" style="edgeStyle=orthogonalEdgeStyle;rounded=0;orthogonalLoop=1;jettySize=auto;html=1;" parent="1" source="X0XXBBq298W-yAg8tdMK-7" target="X0XXBBq298W-yAg8tdMK-11" edge="1">
          <mxGeometry relative="1" as="geometry" />
        </mxCell>
        <mxCell id="X0XXBBq298W-yAg8tdMK-7" value="实例化前" style="whiteSpace=wrap;html=1;rounded=0;" parent="1" vertex="1">
          <mxGeometry x="380" y="340" width="120" height="60" as="geometry" />
        </mxCell>
        <mxCell id="X0XXBBq298W-yAg8tdMK-16" value="" style="edgeStyle=orthogonalEdgeStyle;rounded=0;orthogonalLoop=1;jettySize=auto;html=1;" parent="1" source="X0XXBBq298W-yAg8tdMK-11" target="X0XXBBq298W-yAg8tdMK-15" edge="1">
          <mxGeometry relative="1" as="geometry" />
        </mxCell>
        <mxCell id="X0XXBBq298W-yAg8tdMK-17" value="否" style="edgeLabel;html=1;align=center;verticalAlign=middle;resizable=0;points=[];" parent="X0XXBBq298W-yAg8tdMK-16" vertex="1" connectable="0">
          <mxGeometry x="-0.2889" y="-1" relative="1" as="geometry">
            <mxPoint as="offset" />
          </mxGeometry>
        </mxCell>
        <mxCell id="X0XXBBq298W-yAg8tdMK-19" value="" style="edgeStyle=orthogonalEdgeStyle;rounded=0;orthogonalLoop=1;jettySize=auto;html=1;" parent="1" source="X0XXBBq298W-yAg8tdMK-11" target="X0XXBBq298W-yAg8tdMK-18" edge="1">
          <mxGeometry relative="1" as="geometry" />
        </mxCell>
        <mxCell id="X0XXBBq298W-yAg8tdMK-21" value="是" style="edgeLabel;html=1;align=center;verticalAlign=middle;resizable=0;points=[];" parent="X0XXBBq298W-yAg8tdMK-19" vertex="1" connectable="0">
          <mxGeometry x="0.2333" y="3" relative="1" as="geometry">
            <mxPoint x="20" y="-3" as="offset" />
          </mxGeometry>
        </mxCell>
        <mxCell id="X0XXBBq298W-yAg8tdMK-11" value="是否自行实现创建" style="rhombus;whiteSpace=wrap;html=1;rounded=0;fillColor=#f0a30a;strokeColor=#BD7000;fontColor=#000000;" parent="1" vertex="1">
          <mxGeometry x="400" y="470" width="80" height="80" as="geometry" />
        </mxCell>
        <mxCell id="X0XXBBq298W-yAg8tdMK-24" value="" style="edgeStyle=orthogonalEdgeStyle;rounded=0;orthogonalLoop=1;jettySize=auto;html=1;" parent="1" source="X0XXBBq298W-yAg8tdMK-15" target="X0XXBBq298W-yAg8tdMK-23" edge="1">
          <mxGeometry relative="1" as="geometry" />
        </mxCell>
        <mxCell id="X0XXBBq298W-yAg8tdMK-15" value="实例化&lt;br&gt;&lt;pre&gt;createBeanInstance()&lt;/pre&gt;&lt;pre&gt;&lt;b&gt;&lt;font color=&quot;#ff3333&quot;&gt;推断构造方法&lt;/font&gt;&lt;/b&gt;&lt;/pre&gt;" style="whiteSpace=wrap;html=1;rounded=0;fillColor=#ffe6cc;strokeColor=#d79b00;" parent="1" vertex="1">
          <mxGeometry x="325" y="630" width="230" height="90" as="geometry" />
        </mxCell>
        <mxCell id="X0XXBBq298W-yAg8tdMK-20" style="edgeStyle=orthogonalEdgeStyle;rounded=0;orthogonalLoop=1;jettySize=auto;html=1;exitX=0.5;exitY=0;exitDx=0;exitDy=0;entryX=0;entryY=0.5;entryDx=0;entryDy=0;" parent="1" source="X0XXBBq298W-yAg8tdMK-18" target="X0XXBBq298W-yAg8tdMK-2" edge="1">
          <mxGeometry relative="1" as="geometry" />
        </mxCell>
        <mxCell id="X0XXBBq298W-yAg8tdMK-18" value="初始化后方法" style="whiteSpace=wrap;html=1;rounded=0;" parent="1" vertex="1">
          <mxGeometry x="150" y="480" width="120" height="60" as="geometry" />
        </mxCell>
        <mxCell id="X0XXBBq298W-yAg8tdMK-34" value="" style="edgeStyle=orthogonalEdgeStyle;rounded=0;orthogonalLoop=1;jettySize=auto;html=1;" parent="1" source="X0XXBBq298W-yAg8tdMK-23" target="X0XXBBq298W-yAg8tdMK-33" edge="1">
          <mxGeometry relative="1" as="geometry" />
        </mxCell>
        <mxCell id="X0XXBBq298W-yAg8tdMK-23" value="&lt;pre&gt;populateBean()&lt;/pre&gt;&lt;pre&gt;填充属性&lt;/pre&gt;" style="whiteSpace=wrap;html=1;rounded=0;fillColor=#ffe6cc;strokeColor=#d79b00;" parent="1" vertex="1">
          <mxGeometry x="355" y="860" width="170" height="60" as="geometry" />
        </mxCell>
        <mxCell id="X0XXBBq298W-yAg8tdMK-25" value="" style="shape=curlyBracket;whiteSpace=wrap;html=1;rounded=1;size=0.5;" parent="1" vertex="1">
          <mxGeometry x="525" y="800" width="20" height="170" as="geometry" />
        </mxCell>
        <mxCell id="X0XXBBq298W-yAg8tdMK-27" value="实例化后" style="rounded=1;whiteSpace=wrap;html=1;" parent="1" vertex="1">
          <mxGeometry x="545" y="770" width="120" height="60" as="geometry" />
        </mxCell>
        <mxCell id="X0XXBBq298W-yAg8tdMK-31" value="填充属性前" style="rounded=1;whiteSpace=wrap;html=1;" parent="1" vertex="1">
          <mxGeometry x="545" y="855" width="120" height="60" as="geometry" />
        </mxCell>
        <mxCell id="X0XXBBq298W-yAg8tdMK-32" value="填充属性" style="rounded=1;whiteSpace=wrap;html=1;" parent="1" vertex="1">
          <mxGeometry x="545" y="940" width="120" height="60" as="geometry" />
        </mxCell>
        <mxCell id="X0XXBBq298W-yAg8tdMK-33" value="初始化操作" style="whiteSpace=wrap;html=1;rounded=0;fillColor=#dae8fc;strokeColor=#6c8ebf;" parent="1" vertex="1">
          <mxGeometry x="360" y="1147.5" width="160" height="60" as="geometry" />
        </mxCell>
        <mxCell id="X0XXBBq298W-yAg8tdMK-35" value="" style="shape=curlyBracket;whiteSpace=wrap;html=1;rounded=1;size=0.5;" parent="1" vertex="1">
          <mxGeometry x="520" y="1055" width="20" height="245" as="geometry" />
        </mxCell>
        <mxCell id="X0XXBBq298W-yAg8tdMK-36" value="调Aware接口" style="rounded=1;whiteSpace=wrap;html=1;fillColor=#ffe6cc;strokeColor=#d79b00;" parent="1" vertex="1">
          <mxGeometry x="540" y="1030" width="120" height="60" as="geometry" />
        </mxCell>
        <mxCell id="X0XXBBq298W-yAg8tdMK-37" value="初始化前" style="rounded=1;whiteSpace=wrap;html=1;fillColor=#ffe6cc;strokeColor=#d79b00;" parent="1" vertex="1">
          <mxGeometry x="540" y="1110" width="120" height="60" as="geometry" />
        </mxCell>
        <mxCell id="X0XXBBq298W-yAg8tdMK-38" value="初始化" style="rounded=1;whiteSpace=wrap;html=1;fillColor=#ffe6cc;strokeColor=#d79b00;" parent="1" vertex="1">
          <mxGeometry x="540" y="1190" width="120" height="60" as="geometry" />
        </mxCell>
        <mxCell id="X0XXBBq298W-yAg8tdMK-39" value="初始化后" style="rounded=1;whiteSpace=wrap;html=1;fillColor=#ffe6cc;strokeColor=#d79b00;" parent="1" vertex="1">
          <mxGeometry x="540" y="1270" width="120" height="60" as="geometry" />
        </mxCell>
      </root>
    </mxGraphModel>
  </diagram>
</mxfile>
